<?xml version="1.0" encoding="utf-8"?>
<svg xmlns="http://www.w3.org/2000/svg" width="259.302" height="34.343" viewBox="0 0 259.302 34.343"><path d="M364.543,154.84v15.049c0,2.039-2.011,3.692-4.491,3.692H328.617c-2.48,0-4.491-1.653-4.491-3.692V154.84c0-2.039,2.01-3.692,4.491-3.692h31.435c2.48,0,4.491,1.653,4.491,3.692m4.491-11.077H328.617c-4.96,0-8.982,3.307-8.982,7.385v19.408c0,4.079,4.021,7.386,8.982,7.386h40.417c4.96,0,8.981-3.306,8.981-7.386V151.148c0-4.078-4.021-7.385-8.981-7.385" transform="translate(-257.466 -143.763)"/><path d="M440.968,170.557c-2.48,0-4.491-1.653-4.491-3.692V151.149c0-4.078-4.021-7.385-8.982-7.385h-8.982v3.692c2.48,0,4.491,1.653,4.491,3.693v15.716c0,2.039-2.011,3.692-4.491,3.692h-4.491v7.385h31.435v-7.385Z" transform="translate(-288.983 -143.763)"/><path d="M274.607,143.763H226.3V154.4h48.308c2.382,0,4.313,2.5,4.313,4.455h4.314v-8c0-3.918-3.863-7.094-8.626-7.094" transform="translate(-226.299 -143.763)"/><path d="M274.728,168.487H226.663v7.092h48.065c2.382,0,4.313,1.588,4.313,3.547s-1.931,3.546-4.313,3.546H226.706v3.546h48.023c4.764,0,8.626-3.175,8.626-7.092v-3.547c0-3.917-3.863-7.092-8.626-7.092" transform="translate(-226.421 -152.019)"/><path d="M471.743,165.661h1.351a1.218,1.218,0,0,0,1.351-1.282,1.252,1.252,0,0,0-1.357-1.3h-1.345Zm0,4.753h-2.307v-9.071h3.885c2.263,0,3.483,1.119,3.483,2.993a2.719,2.719,0,0,1-1.553,2.564l1.817,3.514h-2.59l-1.559-3.175h-1.176Z" transform="translate(-307.486 -149.633)" fill="#44d62c"/><path d="M488.831,170.413h-6.217v-9.071h6.217V163.2h-3.91v1.8H488.6v1.7h-3.677v1.848h3.91Z" transform="translate(-311.886 -149.633)" fill="#44d62c"/><path d="M496.912,166.761h2.068l-1.006-3.5h-.05Zm2.521,1.659h-2.967l-.578,1.993h-2.351l3.049-9.071h2.823l3.049,9.071h-2.451Z" transform="translate(-315.533 -149.633)" fill="#44d62c"/><path d="M514.681,170.413h-6.06v-9.071h2.307v7.211h3.753Z" transform="translate(-320.571 -149.633)" fill="#44d62c"/><path d="M525.588,167.707c.082.622.779,1.037,1.635,1.037.9,0,1.483-.4,1.483-.949,0-.5-.384-.748-1.414-.962L526.1,166.6c-1.673-.32-2.534-1.226-2.534-2.6,0-1.76,1.509-2.892,3.609-2.892,2.269,0,3.608,1.1,3.634,2.8h-2.125c-.044-.659-.653-1.056-1.484-1.056-.8,0-1.339.364-1.339.918,0,.49.4.761,1.351.955l1.176.22c1.792.346,2.6,1.156,2.6,2.59,0,1.8-1.49,2.955-3.828,2.955-2.314,0-3.741-1.025-3.766-2.785Z" transform="translate(-325.503 -149.554)"/><path d="M536.431,165.8c0-2.961,1.7-4.69,4.407-4.69a3.818,3.818,0,0,1,4.105,3.621h-2.219a1.862,1.862,0,0,0-1.886-1.772c-1.258,0-2.056,1.075-2.056,2.836,0,1.778.793,2.854,2.063,2.854a1.855,1.855,0,0,0,1.892-1.729h2.219a3.784,3.784,0,0,1-4.118,3.577c-2.716,0-4.407-1.729-4.407-4.7" transform="translate(-329.857 -149.554)"/><path d="M557.164,170.413v-3.652h-3.615v3.652h-2.307v-9.071h2.307V164.9h3.615v-3.558h2.3v9.071Z" transform="translate(-334.802 -149.633)"/><path d="M583.169,165.8c0,1.722.837,2.816,2.132,2.816s2.132-1.094,2.132-2.816-.843-2.823-2.132-2.823-2.132,1.094-2.132,2.823m6.608,0c0,2.892-1.728,4.69-4.476,4.69s-4.482-1.8-4.482-4.69,1.734-4.7,4.482-4.7,4.476,1.8,4.476,4.7" transform="translate(-344.678 -149.554)"/><path d="M568.017,165.8c0,1.722.837,2.816,2.132,2.816s2.131-1.094,2.131-2.816-.843-2.823-2.131-2.823-2.132,1.094-2.132,2.823m6.608,0c0,2.892-1.729,4.69-4.476,4.69s-4.482-1.8-4.482-4.69,1.735-4.7,4.482-4.7,4.476,1.8,4.476,4.7" transform="translate(-339.619 -149.554)"/><path d="M602.406,170.413h-6.06v-9.071h2.307v7.211h3.753Z" transform="translate(-349.863 -149.633)"/><rect width="2.307" height="9.071" transform="translate(171.104 25.115)"/><path d="M471.355,188.678h1.075c1.5,0,2.307-.911,2.307-2.722,0-1.7-.849-2.628-2.307-2.628h-1.075Zm1.377-7.21c2.741,0,4.35,1.591,4.35,4.482s-1.616,4.589-4.35,4.589h-3.683v-9.071Z" transform="translate(-307.356 -156.353)"/><path d="M493.193,190.618c-2.8,0-4.482-1.729-4.482-4.709,0-2.942,1.685-4.677,4.426-4.677a3.811,3.811,0,0,1,4.079,3.15h-2.281a1.764,1.764,0,0,0-1.792-1.3c-1.308,0-2.081,1.025-2.081,2.792,0,1.8.855,2.885,2.182,2.885a1.677,1.677,0,0,0,1.835-1.528l.006-.138h-1.659v-1.585h3.885v1.113c0,2.476-1.533,3.992-4.117,3.992" transform="translate(-313.922 -156.274)"/><rect width="2.307" height="9.071" transform="translate(184.792 25.115)"/><path d="M511.546,190.539v-7.21h-2.5v-1.861h7.306v1.861h-2.5v7.21Z" transform="translate(-320.712 -156.353)"/><path d="M522.671,186.887h2.068l-1.006-3.5h-.051Zm2.521,1.659h-2.967l-.578,1.993h-2.351l3.049-9.071h2.823l3.049,9.071h-2.451Z" transform="translate(-324.135 -156.353)"/><path d="M540.441,190.539h-6.06v-9.071h2.307v7.21h3.753Z" transform="translate(-329.172 -156.353)"/><g transform="translate(215.307 24.942)"><path d="M551.736,187.809c.082.622.779,1.037,1.635,1.037.9,0,1.483-.4,1.483-.949,0-.5-.384-.748-1.414-.962l-1.188-.232c-1.672-.32-2.534-1.226-2.534-2.6,0-1.76,1.509-2.892,3.609-2.892,2.269,0,3.608,1.1,3.633,2.8h-2.125c-.044-.659-.653-1.056-1.484-1.056-.8,0-1.339.364-1.339.918,0,.49.4.761,1.351.955l1.176.22c1.792.346,2.6,1.156,2.6,2.59,0,1.8-1.49,2.955-3.828,2.955-2.314,0-3.741-1.025-3.766-2.785Z" transform="translate(-549.542 -181.208)" fill="#44d62c"/></g><path d="M562.956,190.516v-9.071h2.307v3.986h.05l3.087-3.986h2.477l-3.163,4.03,3.345,5.042h-2.71l-2.314-3.546-.773.981v2.564Z" transform="translate(-338.714 -156.345)" fill="#44d62c"/><rect width="2.307" height="9.071" transform="translate(233.31 25.099)" fill="#44d62c"/><path d="M588.538,190.516h-6.06v-9.071h2.307v7.21h3.753Z" transform="translate(-345.233 -156.345)" fill="#44d62c"/><path d="M606.384,187.809c.082.622.779,1.037,1.634,1.037.9,0,1.483-.4,1.483-.949,0-.5-.383-.748-1.413-.962L606.9,186.7c-1.673-.32-2.534-1.226-2.534-2.6,0-1.76,1.509-2.892,3.609-2.892,2.27,0,3.609,1.1,3.633,2.8h-2.125c-.044-.659-.653-1.056-1.483-1.056-.8,0-1.34.364-1.34.918,0,.49.4.761,1.352.955l1.176.22c1.792.346,2.6,1.156,2.6,2.59,0,1.8-1.49,2.955-3.828,2.955-2.314,0-3.742-1.025-3.766-2.785Z" transform="translate(-352.482 -156.266)" fill="#44d62c"/><path d="M599.611,190.516h-6.06v-9.071h2.307v7.21h3.753Z" transform="translate(-348.93 -156.345)" fill="#44d62c"/></svg>